<svg width="31" height="28" viewBox="0 0 31 28" fill="none" xmlns="http://www.w3.org/2000/svg">
<path d="M8.71863 11.1472C7.64746 11.1472 6.78205 12.0332 6.78205 13.1299C6.78205 14.2266 7.64746 15.1126 8.71863 15.1126C9.78981 15.1126 10.6552 14.2266 10.6552 13.1299C10.6552 12.0332 9.78981 11.1472 8.71863 11.1472ZM15.4967 11.1472C14.4255 11.1472 13.5601 12.0332 13.5601 13.1299C13.5601 14.2266 14.4255 15.1126 15.4967 15.1126C16.5678 15.1126 17.4333 14.2266 17.4333 13.1299C17.4333 12.0332 16.5678 11.1472 15.4967 11.1472ZM22.2747 11.1472C21.2035 11.1472 20.3381 12.0332 20.3381 13.1299C20.3381 14.2266 21.2035 15.1126 22.2747 15.1126C23.3459 15.1126 24.2113 14.2266 24.2113 13.1299C24.2113 12.0332 23.3459 11.1472 22.2747 11.1472ZM15.4967 0.242432C6.9394 0.242432 0.00401648 6.01081 0.00401648 13.1299C0.00401648 16.0791 1.20833 18.7806 3.20543 20.9553C2.30371 23.3965 0.427644 25.4659 0.397385 25.4907C-0.00203534 25.9244 -0.110968 26.5564 0.119001 27.1016C0.34897 27.6469 0.875478 28 1.45645 28C5.17832 28 8.11345 26.4077 9.87453 25.1313C11.6235 25.6952 13.5117 26.0174 15.4967 26.0174C24.0539 26.0174 30.9893 20.249 30.9893 13.1299C30.9893 6.01081 24.0539 0.242432 15.4967 0.242432ZM15.4967 23.0433C13.8808 23.0433 12.2832 22.7893 10.752 22.2936L9.37828 21.8475L8.19818 22.7026C7.33277 23.3283 6.14661 24.0285 4.71838 24.4994C5.16017 23.7497 5.58984 22.907 5.92269 22.0086L6.56419 20.2676L5.31751 18.9169C4.22213 17.7211 2.90889 15.7446 2.90889 13.1299C2.90889 7.66511 8.55524 3.21646 15.4967 3.21646C22.4381 3.21646 28.0845 7.66511 28.0845 13.1299C28.0845 18.5947 22.4381 23.0433 15.4967 23.0433Z" fill="white"/>
</svg>
